<svg width="312" height="345" viewBox="0 0 312 345" fill="none" xmlns="http://www.w3.org/2000/svg">
<g filter="url(#filter0_d_3439_2394)">
<path d="M267.68 153.68C266.428 221.266 209.668 270.051 177.453 292.35C164.238 301.498 147.16 301.498 133.944 292.351C101.729 270.052 44.9688 221.266 43.7175 153.68C42.5728 91.845 93.8532 41.6987 155.699 41.6987C217.544 41.6987 268.825 91.845 267.68 153.68Z" fill="#FAFAFA" stroke="#FAFAFA" stroke-width="15.3974"/>
<circle cx="155.699" cy="153.68" r="100" fill="#9F9F9F"/>
<path d="M217.288 139.676C217.288 120.209 201.488 104.408 182.021 104.408C171.536 104.408 162.151 109.797 155.699 117.056C149.246 109.797 139.861 104.408 129.376 104.408C109.91 104.408 94.1089 120.209 94.1089 139.676C94.1089 149.281 97.9582 157.969 104.191 164.348L147.4 207.558C151.983 212.14 159.413 212.139 163.994 207.555L207.207 164.311C213.439 157.969 217.288 149.281 217.288 139.676Z" fill="#FAFAFA"/>
</g>
<circle cx="207.699" cy="102.699" r="44" fill="#0796FF" stroke="#FAFAFA" stroke-width="6.28571"/>
<path d="M199.209 123.881C200.345 123.882 201.47 123.657 202.519 123.22C203.568 122.783 204.519 122.142 205.319 121.334L237.032 89.6209L229.31 81.9209L199.209 112.022L186.087 98.9037L178.365 106.622L193.096 121.352C193.897 122.157 194.85 122.794 195.899 123.229C196.948 123.663 198.073 123.884 199.209 123.881Z" fill="#FAFAFA"/>
<defs>
<filter id="filter0_d_3439_2394" x="0" y="0" width="311.397" height="344.91" filterUnits="userSpaceOnUse" color-interpolation-filters="sRGB">
<feFlood flood-opacity="0" result="BackgroundImageFix"/>
<feColorMatrix in="SourceAlpha" type="matrix" values="0 0 0 0 0 0 0 0 0 0 0 0 0 0 0 0 0 0 127 0" result="hardAlpha"/>
<feOffset dy="2"/>
<feGaussianBlur stdDeviation="18"/>
<feComposite in2="hardAlpha" operator="out"/>
<feColorMatrix type="matrix" values="0 0 0 0 0 0 0 0 0 0 0 0 0 0 0 0 0 0 0.65 0"/>
<feBlend mode="normal" in2="BackgroundImageFix" result="effect1_dropShadow_3439_2394"/>
<feBlend mode="normal" in="SourceGraphic" in2="effect1_dropShadow_3439_2394" result="shape"/>
</filter>
</defs>
</svg>
